<?xml version="1.0" encoding="utf-8"?>
<svg version="1.1" xmlns="http://www.w3.org/2000/svg" xmlns:xlink="http://www.w3.org/1999/xlink" height="763.9999999999995" width="426">
  <defs>
    <rect id="rect-1" opacity="1" x="0" y="0" width="426" height="440"/>
    <mask id="mask-2" maskUnits="userSpaceOnUse" maskContentUnits="userSpaceOnUse">
      <rect opacity="1" x="0" y="0" width="426" height="763.9999999999995" fill="Black"/>
      <use xlink:href="#rect-1" fill="White"/>
    </mask>
    <path id="path-3" opacity="1" fill-rule="evenodd" d="M143.09836065573762,737.1464968152846 C143.9016393442622,742.6751592356668 143.9016393442622,746.6242038216541 144.7049180327868,751.3630573248388 C145.50819672131138,756.1019108280234 143.09836065573762,757.6815286624184 139.0819672131147,757.6815286624184 C135.86885245901635,757.6815286624184 132.65573770491798,758.4713375796158 129.44262295081967,757.6815286624184 C123.81967213114756,756.1019108280234 119.00000000000003,757.6815286624184 113.37704918032792,759.2611464968134 C97.31147540983619,763.999999999998 81.24590163934445,763.999999999998 64.37704918032813,763.2101910828005 C61.163934426229794,763.2101910828005 58.75409836065603,761.6305732484057 58.75409836065603,759.2611464968134 C58.75409836065603,757.6815286624184 61.163934426229794,755.3121019108261 62.770491803278965,754.5222929936286 C71.60655737704943,750.5732484076414 80.44262295081987,748.2038216560491 89.27868852459032,744.2547770700618 C99.72131147540995,739.5159235668771 110.16393442622959,737.1464968152846 121.40983606557378,737.9363057324822 "/>
    <path id="path-4" opacity="1" fill-rule="evenodd" d="M202.54098360655777,96.61146496815249 C204.14754098360697,95.82165605095503 204.95081967213153,95.82165605095503 205.75409836065614,95.0318471337576 C210.57377049180369,93.4522292993627 213.78688524590203,95.0318471337576 214.59016393442664,99.77070063694231 C216.19672131147584,107.66878980891681 210.57377049180369,118.72611464968112 203.3442622950824,121.09554140127348 C200.13114754098405,121.88535031847093 199.3278688524594,123.46496815286584 198.52459016393482,125.8343949044582 C196.11475409836106,131.36305732484033 192.90163934426266,136.89171974522247 189.68852459016432,140.84076433120975 C176.83606557377084,155.8471337579613 157.55737704918067,157.42675159235623 141.49180327868888,146.3694267515919 C138.2786885245905,143.99999999999955 135.86885245901675,141.6305732484072 133.45901639344297,138.4713375796174 C129.44262295082,133.73248407643268 127.03278688524622,128.99363057324797 119.00000000000033,127.41401273885309 C111.77049180327901,125.8343949044582 108.55737704918064,118.72611464968112 106.95081967213146,110.82802547770662 C106.14754098360686,105.29936305732447 109.36065573770524,102.9299363057321 117.39344262295114,103.71974522292956 C118.19672131147576,96.61146496815252 118.19672131147576,90.29299363057291 119.00000000000033,83.18471337579584 C120.6065573770495,72.91719745222898 123.81967213114788,64.22929936305702 131.04918032786918,56.33121019108251 C143.90163934426263,40.535031847133496 163.98360655737739,38.9554140127386 180.04918032786918,51.59235668789781 C190.49180327868885,59.490445859872324 196.91803278688562,71.33757961783408 200.13114754098396,83.9745222929933 "/>
    <path id="path-5" opacity="1" fill-rule="evenodd" d="M85.262295081967,337.50318471337533 C92.49180327868834,340.6624203821651 98.9180327868851,343.8216560509549 106.14754098360648,347.7707006369422 C106.14754098360648,358.8280254777065 106.95081967213108,370.6751592356682 106.14754098360648,381.7324840764325 C105.34426229508188,387.2611464968147 101.32786885245889,391.9999999999994 98.91803278688514,396.7388535031841 C90.08196721311458,392.78980891719686 78.83606557377027,380.1528662420376 75.6229508196719,372.2547770700631 C74.01639344262271,366.72611464968094 72.40983606557353,361.1974522292988 69.99999999999973,354.87898089171915 C69.19672131147513,351.71974522292936 69.19672131147513,349.350318471337 72.40983606557353,347.77070063694214 "/>
    <path id="path-6" opacity="1" fill-rule="evenodd" d="M119.00000000000028,363.5668789808908 C103.73770491803305,369.8853503184704 93.29508196721333,367.51592356687803 81.24590163934445,359.6178343949035 C82.85245901639362,358.8280254777061 84.45901639344281,358.03821656050866 86.8688524590166,357.2484076433112 C86.065573770492,355.6687898089163 86.065573770492,353.299363057324 84.45901639344281,350.92993630573164 C87.67213114754117,351.71974522292913 90.88524590163955,351.71974522292913 94.0983606557379,352.50955414012657 C94.0983606557379,346.9808917197444 94.90163934426252,341.45222929936233 94.90163934426252,336.7133757961776 C94.90163934426252,332.76433121019033 91.68852459016415,331.1847133757954 89.27868852459038,329.60509554140054 L36.262295081967274,296.43312101910766 C33.04918032786891,294.85350318471274 30.639344262295133,293.27388535031787 27.426229508196744,290.90445859872545 C22.606557377049178,287.7452229299357 21,282.2165605095535 23.40983606557378,276.6878980891714 C28.229508196721348,266.4203821656046 35.45901639344267,258.5222929936301 43.49180327868859,250.6242038216556 L70.00000000000014,269.5796178343944 C66.78688524590179,274.3184713375791 63.5737704918034,277.47770700636886 60.36065573770504,282.2165605095536 L74.81967213114771,294.0636942675153 C86.065573770492,302.7515923566873 97.31147540983629,312.2292993630566 108.55737704918059,320.9171974522286 C112.57377049180354,324.0764331210184 115.7868852459019,328.0254777070056 115.7868852459019,333.55414012738777 "/>
    <path id="path-7" opacity="1" fill-rule="evenodd" d="M176.03278688524642,146.3694267515923 C179.2459016393448,156.63694267515913 172.81967213114805,166.90445859872597 182.45901639344316,175.59235668789785 C177.6393442622956,179.5414012738851 173.6229508196726,183.49044585987235 168.80327868852504,187.43949044585958 C159.9672131147545,184.28025477706979 151.13114754098393,181.12101910828 140.6885245901642,177.17197452229274 C147.91803278688556,173.22292993630552 147.91803278688556,168.4840764331208 147.91803278688556,162.9554140127387 C147.11475409836095,157.42675159235654 147.91803278688556,151.89808917197442 147.91803278688556,144.78980891719738 "/>
    <path id="path-8" opacity="1" fill-rule="evenodd" d="M294.1147540983609,244.3057324840761 L294.1147540983609,211.13375796178312 C301.3442622950822,211.92356687898058 307.770491803279,211.92356687898058 315.00000000000034,212.713375796178 C318.2131147540987,203.23566878980859 322.22950819672167,193.7579617834392 325.44262295082,184.28025477706976 C327.04918032786924,179.54140127388504 328.65573770491835,174.01273885350287 331.06557377049216,169.27388535031818 C332.6721311475414,165.32484076433093 332.6721311475414,162.16560509554114 331.06557377049216,158.21656050955386 C329.459016393443,154.2675159235666 328.65573770491847,149.5286624203819 328.65573770491847,144.7898089171972 L328.65573770491847,125.83439490445838 C335.8852459016398,125.83439490445838 335.8852459016398,132.152866242038 339.9016393442627,136.8917197452227 C344.7213114754103,136.1019108280252 349.54098360655786,134.52229299363032 355.16393442623,133.73248407643288 C359.9836065573776,132.94267515923542 361.5901639344267,133.73248407643288 362.3934426229513,138.47133757961763 C363.1967213114759,144.78980891719723 364.0000000000005,151.10828025477684 364.0000000000005,157.42675159235642 C364.0000000000005,162.16560509554117 362.3934426229513,165.32484076433096 356.7704918032792,165.32484076433096 C350.34426229508244,165.32484076433096 348.7377049180333,169.2738853503182 347.13114754098405,175.59235668789785 C343.9180327868857,193.7579617834392 340.7049180327873,211.13375796178315 336.6885245901644,229.2993630573245 C331.8688524590168,249.0445859872608 331.06557377049216,245.885350318471 315.8032786885249,245.885350318471 "/>
    <path id="path-9" opacity="1" fill-rule="evenodd" d="M216.19672131147556,301.1719745222923 L115.78688524590191,301.1719745222923 C113.37704918032814,283.006369426751 110.96721311475437,264.8407643312096 108.55737704918063,244.30573248407586 C95.70491803278719,256.15286624203765 84.45901639344295,267.21019108280194 73.21311475409868,279.0573248407637 C60.360655737705244,271.15923566878917 44.29508196721346,269.57961783439424 33.85245901639382,258.52229299363 L38.67213114754137,251.41401273885293 C54.73770491803316,230.8789808917192 70.00000000000034,209.55414012738802 86.06557377049214,189.01910828025433 C92.49180327868885,180.33121019108236 99.72131147541013,174.01273885350278 111.77049180327899,172.43312101910786 C114.18032786885276,172.43312101910786 116.59016393442653,171.6433121019104 119.00000000000027,170.85350318471296 C132.6557377049183,166.11464968152825 146.3114754098363,165.32484076433082 159.16393442622976,172.43312101910786 C163.18032786885271,174.01273885350275 166.39344262295106,173.22292993630532 169.6065573770494,170.85350318471296 C176.8360655737707,165.32484076433082 184.86885245901658,165.32484076433082 193.70491803278708,167.69426751592317 C214.5901639344264,173.22292993630532 234.67213114754114,179.54140127388493 254.75409836065586,187.43949044585943 C270.01639344262304,193.75796178343904 285.2786885245903,198.49681528662373 302.14754098360663,204.81528662420334 C301.34426229508205,219.03184713375748 300.54098360655746,234.82802547770646 300.54098360655746,250.62420382165547 C274.03278688524597,248.25477707006314 248.32786885245912,246.67515923566822 221.8196721311477,242.72611464968097 "/>
    <path id="path-10" opacity="1" fill-rule="evenodd" d="M214.59016393442565,737.9363057324831 L253.9508196721304,737.9363057324831 C257.1639344262287,737.9363057324831 260.37704918032705,740.3057324840755 263.59016393442545,741.8853503184704 C273.22950819672053,745.8343949044578 282.0655737704909,748.9936305732476 291.70491803278594,752.942675159235 C293.31147540983517,753.7324840764325 295.7213114754089,754.5222929936299 297.3278688524581,755.3121019108273 C298.1311475409827,756.1019108280248 298.93442622950727,758.4713375796173 298.93442622950727,759.2611464968147 C298.93442622950727,760.8407643312096 297.3278688524581,762.4203821656046 295.721311475409,762.4203821656046 C290.9016393442614,763.210191082802 286.8852459016385,763.9999999999995 282.06557377049097,763.210191082802 C267.60655737704843,762.4203821656046 253.14754098360584,763.210191082802 239.4918032786879,757.6815286624197 C237.08196721311418,756.8917197452223 233.06557377049123,756.8917197452223 229.85245901639286,757.6815286624197 C214.5901639344257,760.0509554140122 212.18032786885192,757.6815286624197 213.78688524590112,743.4649681528654 "/>
    <path id="path-11" opacity="1" fill-rule="evenodd" d="M146.3114754098367,740.305732484076 C130.24590163934494,745.8343949044582 114.98360655737775,745.0445859872606 98.91803278688599,740.305732484076 L98.91803278688599,733.1974522292988 C101.32786885245976,684.229299363057 103.73770491803353,635.2611464968148 105.3442622950827,585.5031847133754 C106.95081967213187,536.5350318471334 106.95081967213187,486.77707006369394 107.75409836065647,437.80891719745193 L107.75409836065647,408.5859872611462 C107.75409836065647,395.1592356687895 108.55737704918107,382.52229299363034 111.77049180327941,369.8853503184711 C113.37704918032858,364.3566878980889 113.37704918032858,358.8280254777068 113.37704918032858,354.08917197452206 C113.37704918032858,322.49681528662404 112.57377049180398,291.6942675159234 111.77049180327941,260.1019108280254 C111.77049180327941,255.36305732484064 112.57377049180401,251.4140127388534 114.98360655737775,247.46496815286613 C116.59016393442693,244.30573248407632 117.39344262295154,240.3566878980891 117.39344262295154,237.19745222929927 C115.78688524590237,220.61146496815277 113.37704918032858,204.02547770700633 111.77049180327941,187.43949044585983 C110.96721311475481,182.70063694267512 110.96721311475481,177.9617834394904 110.16393442623024,172.43312101910826 C114.98360655737778,171.6433121019108 119.00000000000074,170.0636942675159 124.62295081967285,168.484076433121 C129.44262295082038,189.8089171974522 131.04918032786958,211.1337579617834 135.8688524590171,232.45859872611456 L205.75409836065626,232.45859872611456 C205.75409836065626,211.13375796178337 201.73770491803333,190.59872611464962 201.73770491803333,168.48407643312098 L216.19672131147587,170.85350318471333 C217.00000000000048,179.5414012738853 217.8032786885251,187.43949044585983 218.60655737704963,195.33757961783434 C220.21311475409883,207.97452229299358 221.81967213114797,221.40127388535024 222.62295081967255,234.03821656050948 C223.42622950819717,241.14649681528653 223.42622950819717,248.2547770700636 223.42622950819717,255.3630573248407 C222.62295081967255,278.26751592356675 222.62295081967255,301.9617834394903 220.21311475409883,324.8662420382164 C218.60655737704963,346.1910828025476 221.01639344262344,368.3057324840762 221.81967213114802,389.6305732484075 C223.42622950819725,429.12101910828005 229.8524590163939,467.8216560509551 233.86885245901686,507.3121019108278 L241.09836065573813,597.3503184713373 C244.3114754098365,631.3121019108277 249.13114754098405,666.0636942675156 253.14754098360697,700.025477707006 L257.9672131147545,740.305732484076 C248.32786885245943,744.2547770700633 224.22950819672178,744.2547770700633 210.5737704918038,739.5159235668785 C196.91803278688576,650.2675159235666 187.27868852459073,560.2292993630571 171.21311475409897,470.98089171974505 C171.21311475409897,472.56050955414 170.40983606557438,474.1401273885349 170.40983606557438,475.71974522292965 C165.5901639344268,514.4203821656049 159.96721311475474,553.1210191082799 155.1475409836072,592.6114649681525 C152.73770491803344,609.9872611464965 152.73770491803344,628.1528662420378 151.93442622950886,646.3184713375792 C150.32786885245966,675.541401273885 148.72131147541052,704.7643312101907 147.9180327868859,733.9872611464963 "/>
    <path id="path-12" opacity="1" fill-rule="evenodd" d="M184.8688524590176,19.999999999999986 C187.27868852459133,26.318471337579584 189.68852459016514,31.057324840764288 192.09836065573887,36.58598726114643 C196.11475409836186,35.79617834394899 198.52459016393558,38.16560509554133 200.13114754098478,42.114649681528576 C201.737704918034,47.64331210191072 203.34426229508313,53.96178343949033 206.55737704918147,58.700636942675025 C215.393442622952,73.70700636942658 207.36065573770608,87.92356687898068 204.9508196721323,102.92993630573224 C204.9508196721323,104.50955414012715 202.54098360655854,105.2993630573246 200.13114754098473,108.45859872611439 C199.32786885246014,104.50955414012715 198.52459016393553,102.1401273885348 197.72131147541097,98.98089171974499 C196.11475409836177,91.0828025477705 195.31147540983721,83.184713375796 194.50819672131263,75.28662420382149 C193.70491803278804,69.75796178343934 191.2950819672143,65.8089171974521 186.47540983606672,62.64968152866229 C180.85245901639456,59.49044585987249 176.83606557377163,53.17197452229289 171.21311475409954,52.38216560509544 C165.59016393442738,51.59235668789799 159.16393442623067,55.54140127388524 153.5409836065585,57.12101910828013 C151.9344262295093,57.910828025477585 150.32786885246017,57.910828025477585 148.72131147541097,58.700636942675025 C133.45901639344376,64.22929936305718 127.03278688524702,72.91719745222915 127.03278688524702,91.08280254777048 C127.03278688524702,95.82165605095517 127.83606557377162,100.56050955413988 127.83606557377162,105.29936305732457 C127.83606557377162,106.87898089171946 125.42622950819785,108.45859872611436 124.62295081967328,110.82802547770672 C123.01639344262409,110.03821656050926 121.40983606557492,108.45859872611436 119.80327868852572,107.66878980891693 C119.00000000000112,106.87898089171946 119.00000000000112,106.08917197452203 118.19672131147654,105.29936305732457 C114.1803278688536,91.08280254777046 110.16393442623064,76.86624203821637 113.377049180329,61.85987261146482 C113.377049180329,60.28025477706992 114.1803278688536,58.70063694267501 114.98360655737817,57.91082802547757 C118.19672131147652,53.96178343949032 121.4098360655749,50.012738853503066 123.81967213114868,45.273885350318366 C129.4426229508208,33.42675159235662 140.6885245901651,28.68789808917192 151.93442622950937,23.949044585987217 C152.73770491803396,23.949044585987217 153.54098360655857,23.15923566878977 154.34426229508313,23.15923566878977 C161.5737704918044,28.68789808917192 168.80327868852572,23.15923566878977 175.22950819672246,22.36942675159232 "/>
    <path id="path-13" opacity="1" fill-rule="evenodd" d="M204.1475409836076,241.14649681528618 L204.1475409836076,290.1146496815281 C182.45901639344356,290.90445859872557 161.57377049180417,290.1146496815281 140.68852459016475,290.90445859872557 C139.08196721311558,284.585987261146 138.27868852459096,255.36305732484033 139.88524590164013,241.93630573248365 "/>
    <path id="path-14" opacity="1" fill-rule="evenodd" d="M166.39344262295123,180.33121019108242 C163.9836065573775,182.70063694267478 160.7704918032791,184.28025477706964 158.36065573770534,185.85987261146454 C155.147540983607,188.2292993630569 152.7377049180332,188.2292993630569 150.32786885245946,185.07006369426708 C145.50819672131192,179.54140127388496 140.6885245901644,174.01273885350284 135.06557377049228,167.69426751592326 C138.27868852459062,165.3248407643309 140.6885245901644,163.74522292993603 143.90163934426278,161.37579617834368 C150.32786885245946,166.11464968152836 156.7540983606562,170.06369426751561 163.9836065573775,174.80254777070027 C168.00000000000043,172.43312101910792 171.21311475409877,169.27388535031815 174.42622950819714,166.9044585987258 C176.0327868852463,165.3248407643309 178.44262295082007,164.53503184713347 180.04918032786927,163.74522292993603 C184.06557377049222,162.16560509554114 187.27868852459056,165.3248407643309 186.47540983606595,169.27388535031815 C184.86885245901675,174.01273885350284 182.459016393443,179.54140127388496 180.04918032786927,184.28025477706962 C178.44262295082007,187.4394904458594 176.0327868852463,186.64968152866197 173.62295081967258,185.8598726114645 "/>
    <path id="path-15" opacity="1" fill-rule="evenodd" d="M331.2012195121945,269.0448006809477 C345.1951219512188,273.1458917447994 350.95731707317,281.348073872503 350.95731707317,293.65134706405826 L350.95731707317,312.5163659577764 C340.2560975609749,313.3365841705467 330.3780487804872,311.6961477450061 318.8536585365848,311.6961477450061 "/>
    <path id="path-16" opacity="1" fill-rule="evenodd" d="M274.4024390243904,273.96610995756976 L254.64634146341476,271.5054553192587 C253.82317073170742,268.2245824681773 253.82317073170742,265.76392782986625 253.0000000000001,262.48305497878493 C266.9939024390245,258.3819639149332 280.16463414634165,255.10109106385175 293.33536585365874,251 C295.80487804878067,256.74152748939247 299.92073170731726,261.66283676601455 294.98170731707336,267.404364255407 C294.15853658536605,268.2245824681773 294.98170731707336,271.5054553192587 295.80487804878067,273.1458917447995 L308.15243902439045,307.5950566811542 C309.7987804878051,310.0557113194652 310.6219512195124,312.5163659577762 311.44512195121973,315.7972388088577 C301.56707317073193,316.61745702162796 291.6890243902441,316.61745702162796 282.6341463414636,317.4376752343984 "/>
    <path id="path-17" opacity="1" fill-rule="evenodd" d="M379.7682926829263,312.5163659577762 C373.1829268292677,312.5163659577762 365.7743902439019,311.69614774500593 358.365853658536,311.69614774500593 C360.835365853658,304.3141838300727 363.3048780487799,297.75243812790995 364.9512195121946,291.19069242574716 C366.5975609756092,285.4491649363547 367.4207317073165,278.8874192341919 369.0670731707312,271.5054553192587 C374.0060975609751,272.32567353202904 380.5914634146336,273.96610995756976 387.1768292682922,275.60654638311047 "/>
    <path id="path-18" opacity="1" fill-rule="evenodd" d="M294.1585365853659,269.0448006809478 C297.4512195121952,277.2469828086512 299.92073170731715,283.8087285108139 302.3902439024391,292.0109106385173 C294.1585365853659,294.4715652768283 285.92682926829264,296.112001702369 276.8719512195121,298.57265634068 C275.2256097560974,290.3704742129766 273.5792682926828,283.8087285108139 271.9329268292681,274.7863281703401 "/>
    <path id="path-19" opacity="1" fill-rule="evenodd" d="M388.0000000000005,309.2354931066946 C387.1768292682932,317.43767523439806 386.3536585365859,324.81963914933124 385.53048780487853,332.2016030642643 C382.23780487804925,365.0103315750782 378.94512195122,398.6392782986624 375.65243902439073,431.44800680947634 C374.8292682926834,440.4704071499501 374.8292682926834,440.4704071499501 365.7743902439029,440.4704071499501 L288.3963414634149,440.4704071499501 C279.3414634146344,440.4704071499501 278.5182926829271,439.6501889371798 277.6951219512198,431.44800680947634 C274.4024390243905,392.89775080926995 270.2865853658539,353.5272765962933 266.9939024390246,314.9770205960869 L266.9939024390246,310.0557113194649 "/>
    <path id="path-20" opacity="1" fill-rule="evenodd" d="M374.0060975609756,362.54967693676684 L343.54878048780483,362.54967693676684 C337.7865853658536,344.5048762558193 332.84756097560967,325.63985736210134 327.08536585365846,306.77483846838345 C346.8414634146341,307.5950566811537 365.7743902439024,309.23549310669443 385.5304878048781,310.0557113194649 "/>
    <path id="path-21" opacity="1" fill-rule="evenodd" d="M334.4939024390246,305.95462025561403 C332.84756097560995,308.4152748939251 331.2012195121953,310.0557113194658 329.55487804878067,312.5163659577768 L294.9817073170733,361.7294587239979 C293.3353658536587,364.1901133623089 290.8658536585367,366.65076800061996 288.39634146341473,369.1114226389311 C280.9878048780489,374.03273191555314 276.048780487805,373.21251370278287 269.46341463414643,367.4709862133904 C268.6402439024391,366.6507680006201 266.9939024390245,365.83054978784963 266.17073170731715,364.1901133623089 C264.52439024390253,371.5720772772421 269.46341463414643,377.3136047666345 276.8719512195123,376.4933865538642 C282.6341463414635,376.4933865538642 288.39634146341473,374.85295012832347 292.5121951219513,369.9316408517014 C296.6280487804879,365.01033157507936 301.5670731707319,360.08902229845717 305.68292682926847,354.3474948090647 C315.56097560975627,339.5835669791984 324.61585365853676,324.8196391493321 333.67073170731726,310.8759295322361 C334.4939024390246,310.0557113194658 334.4939024390246,309.23549310669534 335.3170731707319,307.59505668115463 "/>
  </defs>
  <g opacity="1">
    <g opacity="1"/>
    <g mask="url(#mask-2)">
      <g opacity="1">
        <g opacity="1">
          <g opacity="1">
            <use xlink:href="#path-3" fill="rgb(249,193,143)" fill-opacity="1"/>
          </g>
          <g opacity="1">
            <use xlink:href="#path-4" fill="rgb(249,193,143)" fill-opacity="1"/>
          </g>
          <g opacity="1">
            <use xlink:href="#path-5" fill="rgb(255,174,32)" fill-opacity="1"/>
          </g>
          <g opacity="1">
            <use xlink:href="#path-6" fill="rgb(249,193,143)" fill-opacity="1"/>
          </g>
          <g opacity="1">
            <use xlink:href="#path-7" fill="rgb(226,163,111)" fill-opacity="1"/>
          </g>
          <g opacity="1">
            <use xlink:href="#path-8" fill="rgb(249,193,143)" fill-opacity="1"/>
          </g>
          <g opacity="1">
            <use xlink:href="#path-9" fill="rgb(34,183,242)" fill-opacity="1"/>
          </g>
          <g opacity="1">
            <use xlink:href="#path-10" fill="rgb(249,193,143)" fill-opacity="1"/>
          </g>
          <g opacity="1">
            <use xlink:href="#path-11" fill="rgb(249,238,112)" fill-opacity="1"/>
          </g>
          <g opacity="1">
            <use xlink:href="#path-12" fill="rgb(10,14,23)" fill-opacity="1"/>
          </g>
          <g opacity="1">
            <use xlink:href="#path-13" fill="rgb(255,174,32)" fill-opacity="1"/>
          </g>
          <g opacity="1">
            <use xlink:href="#path-14" fill="rgb(12,147,188)" fill-opacity="1"/>
          </g>
        </g>
        <g opacity="1">
          <g opacity="1">
            <use xlink:href="#path-15" fill="rgb(255,0,50)" fill-opacity="1"/>
          </g>
          <g opacity="1">
            <use xlink:href="#path-16" fill="rgb(249,238,112)" fill-opacity="1"/>
          </g>
          <g opacity="1">
            <use xlink:href="#path-17" fill="rgb(75,232,115)" fill-opacity="1"/>
          </g>
          <g opacity="1">
            <use xlink:href="#path-18" fill="rgb(255,174,32)" fill-opacity="1"/>
          </g>
          <g opacity="1">
            <use xlink:href="#path-19" fill="rgb(213,23,48)" fill-opacity="1"/>
          </g>
          <g opacity="1">
            <use xlink:href="#path-20" fill="rgb(249,238,112)" fill-opacity="1"/>
          </g>
          <g opacity="1">
            <use xlink:href="#path-21" fill="rgb(195,202,212)" fill-opacity="1"/>
          </g>
        </g>
      </g>
    </g>
  </g>
</svg>