<svg width="369" height="421" xmlns="http://www.w3.org/2000/svg" xmlns:xlink="http://www.w3.org/1999/xlink">
 <defs>
  <rect height="440" width="426" y="0" x="0" id="rect-1"/>
  <mask maskContentUnits="userSpaceOnUse" maskUnits="userSpaceOnUse" id="mask-2">
   <rect id="svg_1" fill="Black" height="764" width="426" y="0" x="0"/>
   <use id="svg_2" fill="White" xlink:href="#rect-1"/>
  </mask>
  <path d="m143.09836,737.1465c0.80328,5.52866 0.80328,9.4777 1.60656,14.21656c0.80328,4.73885 -1.60656,6.31847 -5.62295,6.31847c-3.21312,0 -6.42623,0.78981 -9.63935,0c-5.62295,-1.57962 -10.44262,0 -16.06557,1.57962c-16.06557,4.73885 -32.13115,4.73885 -49,3.94904c-3.21312,0 -5.62295,-1.57962 -5.62295,-3.94904c0,-1.57962 2.40983,-3.94905 4.01639,-4.73886c8.83607,-3.94904 17.67213,-6.31847 26.5082,-10.26751c10.44262,-4.73886 20.88524,-7.10828 32.13115,-6.31847" fill-rule="evenodd" id="path-3"/>
  <path d="m202.54098,96.61146c1.60656,-0.7898 2.40984,-0.7898 3.21312,-1.57961c4.81967,-1.57962 8.03279,0 8.83606,4.73885c1.60656,7.89809 -4.01639,18.95541 -11.2459,21.32484c-3.21311,0.78981 -4.01639,2.36943 -4.81967,4.73885c-2.40984,5.52867 -5.62295,11.05733 -8.83607,15.00637c-12.85245,15.00637 -32.13114,16.58599 -48.19672,5.52867c-3.21311,-2.36943 -5.62295,-4.73886 -8.03278,-7.89809c-4.0164,-4.73886 -6.42623,-9.47771 -14.45902,-11.05733c-7.22951,-1.57962 -10.44262,-8.6879 -12.04918,-16.58598c-0.80328,-5.52867 2.40984,-7.89809 10.44262,-7.10828c0.80328,-7.10829 0.80328,-13.42676 1.60656,-20.53504c1.60656,-10.26751 4.81967,-18.95541 12.04918,-26.8535c12.85246,-15.79618 32.93443,-17.3758 49,-4.73885c10.44262,7.89809 16.86885,19.74522 20.08197,32.38216" fill-rule="evenodd" id="path-4"/>
  <path d="m85.2623,337.50318c7.2295,3.15924 13.65573,6.31848 20.88524,10.26752c0,11.05733 0.80328,22.90446 0,33.96178c-0.80328,5.52867 -4.81967,10.26752 -7.22951,15.00637c-8.83606,-3.94904 -20.08196,-16.58598 -23.29508,-24.48407c-1.60656,-5.52867 -3.21311,-11.05733 -5.62295,-17.3758c-0.80328,-3.15923 -0.80328,-5.52866 2.40984,-7.10828" fill-rule="evenodd" id="path-5"/>
  <path d="m119,363.56688c-15.2623,6.31847 -25.70492,3.94904 -37.7541,-3.94905c1.60656,-0.7898 3.21312,-1.57961 5.62295,-2.36942c-0.80328,-1.57962 -0.80328,-3.94905 -2.40983,-6.31847c3.21311,0.78981 6.42623,0.78981 9.63934,1.57961c0,-5.52866 0.80328,-11.05732 0.80328,-15.79617c0,-3.94905 -3.21312,-5.52867 -5.62295,-7.10828l-53.01639,-33.17198c-3.21312,-1.57962 -5.62296,-3.15923 -8.83607,-5.52866c-4.81967,-3.15924 -6.42623,-8.6879 -4.01639,-14.21656c4.81967,-10.26752 12.04918,-18.16561 20.08196,-26.0637l26.5082,18.95542c-3.21311,4.73885 -6.42623,7.89809 -9.63934,12.63694l14.45901,11.84713c11.2459,8.6879 22.49181,18.16561 33.73771,26.85351c4.01639,3.15923 7.22951,7.10828 7.22951,12.63694" fill-rule="evenodd" id="path-6"/>
  <path d="m176.03279,146.36943c3.21311,10.26751 -3.21312,20.53503 6.42623,29.22293c-4.81968,3.94904 -8.83607,7.89809 -13.65574,11.84713c-8.83607,-3.15924 -17.67213,-6.31847 -28.11476,-10.26752c7.22951,-3.94904 7.22951,-8.68789 7.22951,-14.21656c-0.80328,-5.52866 0,-11.05732 0,-18.1656" fill-rule="evenodd" id="path-7"/>
  <path d="m294.11475,244.30573l0,-33.17197c7.22951,0.78981 13.65574,0.78981 20.88525,1.57962c3.21311,-9.47771 7.22951,-18.95542 10.44262,-28.43313c1.60656,-4.73885 3.21312,-10.26751 5.62295,-15.00636c1.60656,-3.94905 1.60656,-7.10828 0,-11.05733c-1.60655,-3.94904 -2.40983,-8.6879 -2.40983,-13.42675l0,-18.95542c7.22951,0 7.22951,6.31848 11.2459,11.05733c4.81967,-0.78981 9.63934,-2.36943 15.26229,-3.15924c4.81968,-0.7898 6.42623,0 7.22951,4.73886c0.80328,6.31847 1.60656,12.63694 1.60656,18.95541c0,4.73886 -1.60656,7.89809 -7.22951,7.89809c-6.42623,0 -8.03279,3.94905 -9.63934,10.26752c-3.21312,18.1656 -6.42623,35.5414 -10.44263,53.707c-4.81967,19.74523 -5.62295,16.58599 -20.88524,16.58599" fill-rule="evenodd" id="path-8"/>
  <path d="m216.19672,301.17197l-100.40983,0c-2.40984,-18.1656 -4.81968,-36.33121 -7.22951,-56.86624c-12.85246,11.84714 -24.09836,22.90446 -35.34427,34.75159c-12.85245,-7.89808 -28.91803,-9.4777 -39.36065,-20.53503l4.81967,-7.10828c16.06557,-20.53503 31.32787,-41.85987 47.39344,-62.3949c6.42623,-8.6879 13.65574,-15.00637 25.70492,-16.58599c2.40984,0 4.81967,-0.78981 7.22951,-1.57962c13.65574,-4.73885 27.31148,-5.52866 40.16393,1.57962c4.0164,1.57962 7.22951,0.78981 10.44263,-1.57962c7.22951,-5.52866 15.26229,-5.52866 24.09836,-3.15923c20.88524,5.52866 40.96721,11.84713 61.04918,19.74522c15.26229,6.31847 30.52459,11.05733 47.39344,17.3758c-0.80328,14.21656 -1.60656,30.01274 -1.60656,45.80891c-26.50819,-2.36942 -52.21311,-3.94904 -78.72131,-7.89809" fill-rule="evenodd" id="path-9"/>
  <path d="m214.59016,737.93631l39.36066,0c3.21311,0 6.42623,2.36942 9.63934,3.94904c9.63935,3.94904 18.47541,7.10828 28.11476,11.05733c1.60656,0.7898 4.01639,1.57961 5.62295,2.36942c0.80328,0.78981 1.60656,3.15924 1.60656,3.94905c0,1.57961 -1.60656,3.15923 -3.21312,3.15923c-4.81967,0.78981 -8.83606,1.57962 -13.65574,0.78981c-14.45901,-0.78981 -28.91803,0 -42.57377,-5.52866c-2.40983,-0.78981 -6.42623,-0.78981 -9.63934,0c-15.2623,2.36943 -17.67213,0 -16.06557,-14.21656" fill-rule="evenodd" id="path-10"/>
  <path d="m146.31148,740.30573c-16.06558,5.52866 -31.32787,4.73886 -47.39345,0l0,-7.10828c2.40984,-48.96815 4.81967,-97.9363 6.42623,-147.69427c1.60656,-48.96815 1.60656,-98.72611 2.40984,-147.69426l0,-29.22293c0,-13.42675 0.80328,-26.0637 4.01639,-38.70064c1.60656,-5.52866 1.60656,-11.05732 1.60656,-15.79618c0,-31.59235 -0.80328,-62.3949 -1.60656,-93.98726c0,-4.73885 0.80328,-8.6879 3.21312,-12.63694c1.60655,-3.15924 2.40983,-7.10828 2.40983,-10.26752c-1.60655,-16.58599 -4.01639,-33.17197 -5.62295,-49.75796c-0.80328,-4.73885 -0.80328,-9.47771 -1.60656,-15.00637c4.81968,-0.78981 8.83607,-2.36943 14.45902,-3.94904c4.81967,21.32484 6.42623,42.64968 11.2459,63.97452l69.88525,0c0,-21.32484 -4.0164,-41.85987 -4.0164,-63.97452l14.45902,2.36942c0.80328,8.6879 1.60656,16.58599 2.40984,24.48408c1.60655,12.63694 3.21311,26.06369 4.01639,38.70064c0.80328,7.10828 0.80328,14.21656 0.80328,21.32484c-0.80328,22.90446 -0.80328,46.59872 -3.21312,69.50318c-1.60655,21.32484 0.80328,43.43949 1.60656,64.76433c1.60656,39.49045 8.03279,78.19109 12.04918,117.68153l7.22951,90.03822c3.21312,33.96178 8.03279,68.71337 12.04918,102.67516l4.81967,40.28025c-9.63934,3.94905 -33.7377,3.94905 -47.39344,-0.78981c-13.65574,-89.2484 -23.29508,-179.28662 -39.36066,-268.53503c0,1.57962 -0.80327,3.15924 -0.80327,4.73886c-4.81968,38.70063 -10.44263,77.40127 -15.2623,116.89171c-2.40984,17.3758 -2.40984,35.54141 -3.21311,53.70701c-1.60656,29.22293 -3.21312,58.44586 -4.0164,87.66879" fill-rule="evenodd" id="path-11"/>
  <path d="m184.86885,20c2.40984,6.31847 4.81967,11.05732 7.22951,16.58599c4.01639,-0.78981 6.42623,1.57962 8.03279,5.52866c1.60655,5.52866 3.21311,11.84713 6.42623,16.58599c8.83606,15.00637 0.80328,29.22293 -1.60656,44.2293c0,1.57961 -2.40984,2.36942 -4.81967,5.52866c-0.80328,-3.94905 -1.60656,-6.31847 -2.40984,-9.47771c-1.60656,-7.89809 -2.40983,-15.79618 -3.21311,-23.69427c-0.80328,-5.52866 -3.21312,-9.4777 -8.03279,-12.63694c-5.62295,-3.15923 -9.63934,-9.47771 -15.2623,-10.26751c-5.62295,-0.78981 -12.04918,3.15923 -17.67213,4.73885c-1.60655,0.78981 -3.21311,0.78981 -4.81967,1.57962c-15.26229,5.52866 -21.68852,14.21656 -21.68852,32.38216c0,4.73886 0.80328,9.47771 0.80328,14.21656c0,1.57962 -2.40984,3.15924 -3.21312,5.52867c-1.60656,-0.78981 -3.21311,-2.36943 -4.81967,-3.15924c-0.80328,-0.78981 -0.80328,-1.57962 -1.60656,-2.36943c-4.01639,-14.21656 -8.03279,-28.43312 -4.81967,-43.43949c0,-1.57962 0.80328,-3.15923 1.60656,-3.94904c3.21311,-3.94905 6.42623,-7.89809 8.83606,-12.63694c5.62295,-11.84714 16.86885,-16.58599 28.11476,-21.32485c0.80327,0 1.60655,-0.7898 2.40983,-0.7898c7.22951,5.52866 14.45902,0 20.88525,-0.78981" fill-rule="evenodd" id="path-12"/>
  <path d="m204.14754,241.1465l0,48.96815c-21.68852,0.78981 -42.57377,0 -63.45902,0.78981c-1.60655,-6.31847 -2.40983,-35.5414 -0.80327,-48.96815" fill-rule="evenodd" id="path-13"/>
  <path d="m166.39344,180.33121c-2.40983,2.36943 -5.62295,3.94904 -8.03278,5.52866c-3.21312,2.36943 -5.62296,2.36943 -8.03279,-0.78981c-4.81967,-5.52866 -9.63935,-11.05732 -15.2623,-17.37579c3.21312,-2.36943 5.62295,-3.94905 8.83607,-6.31847c6.42623,4.73885 12.85246,8.68789 20.08197,13.42675c4.01639,-2.36943 7.2295,-5.52866 10.44262,-7.89809c1.60656,-1.57962 4.01639,-2.36943 5.62295,-3.15924c4.01639,-1.57961 7.22951,1.57962 6.42623,5.52867c-1.60656,4.73885 -4.01639,10.26751 -6.42623,15.00636c-1.60656,3.15924 -4.01639,2.36943 -6.42623,1.57962" fill-rule="evenodd" id="path-14"/>
  <path d="m331.20122,269.0448c13.9939,4.10109 19.7561,12.30327 19.7561,24.60655l0,18.86502c-10.70122,0.82021 -20.57927,-0.82022 -32.10366,-0.82022" fill-rule="evenodd" id="path-15"/>
  <path d="m274.40244,273.96611l-19.7561,-2.46065c-0.82317,-3.28088 -0.82317,-5.74153 -1.64634,-9.02241c13.9939,-4.10109 27.16463,-7.38196 40.33537,-11.48305c2.46951,5.74153 6.58536,10.66284 1.64634,16.40436c-0.82317,0.82022 0,4.1011 0.82317,5.74153l12.34756,34.44917c1.64634,2.46065 2.46951,4.92131 3.29268,8.20218c-9.87805,0.82022 -19.7561,0.82022 -28.81097,1.64044" fill-rule="evenodd" id="path-16"/>
  <path d="m379.76829,312.51637c-6.58536,0 -13.9939,-0.82022 -21.40244,-0.82022c2.46952,-7.38197 4.93903,-13.94371 6.58537,-20.50546c1.64634,-5.74153 2.46951,-12.30327 4.11585,-19.68523c4.93903,0.82021 11.52439,2.46065 18.10976,4.10109" fill-rule="evenodd" id="path-17"/>
  <path d="m294.15854,269.0448c3.29268,8.20218 5.76219,14.76393 8.2317,22.96611c-8.2317,2.46066 -16.46341,4.10109 -25.51829,6.56175c-1.64634,-8.20219 -3.29268,-14.76393 -4.93902,-23.78633" fill-rule="evenodd" id="path-18"/>
  <path d="m388,309.23549c-0.82317,8.20219 -1.64634,15.58415 -2.46951,22.96611c-3.29269,32.80873 -6.58537,66.43768 -9.87805,99.24641c-0.82317,9.0224 -0.82317,9.0224 -9.87805,9.0224l-77.37805,0c-9.05488,0 -9.87805,-0.82022 -10.70122,-9.0224c-3.29268,-38.55026 -7.40853,-77.92073 -10.70122,-116.47099l0,-4.92131" fill-rule="evenodd" id="path-19"/>
  <path d="m374.0061,362.54968l-30.45732,0c-5.76219,-18.0448 -10.70122,-36.90982 -16.46341,-55.77484c19.75609,0.82022 38.68902,2.46065 58.44512,3.28087" fill-rule="evenodd" id="path-20"/>
  <path d="m334.4939,305.95462c-1.64634,2.46065 -3.29268,4.10109 -4.93902,6.56175l-34.57317,49.21309c-1.64634,2.46065 -4.11586,4.92131 -6.58537,7.38196c-7.40854,4.92131 -12.34756,4.10109 -18.93293,-1.64043c-0.82317,-0.82022 -2.46951,-1.64044 -3.29268,-3.28088c-1.64634,7.38197 3.29268,13.12349 10.70122,12.30328c5.7622,0 11.52439,-1.64044 15.64025,-6.56175c4.11585,-4.92131 9.05487,-9.84262 13.17073,-15.58415c9.87805,-14.76392 18.93292,-29.52785 27.9878,-43.47156c0.82317,-0.82022 0.82317,-1.64044 1.64634,-3.28087" fill-rule="evenodd" id="path-21"/>
 </defs>
 <g>
  <title>background</title>
  <rect fill="none" id="canvas_background" height="423" width="371" y="-1" x="-1"/>
 </g>
 <g>
  <title>Layer 1</title>
  <g id="svg_3">
   <g id="svg_4"/>
   <g id="svg_5" mask="url(#mask-2)">
    <g id="svg_6">
     <g id="svg_7">
      <g id="svg_8">
       <use x="-20" y="-20" id="svg_9" fill="rgb(249,193,143)" xlink:href="#path-3"/>
      </g>
      <g id="svg_10">
       <use x="-20" y="-20" id="svg_11" fill="rgb(249,193,143)" xlink:href="#path-4"/>
      </g>
      <g id="svg_12">
       <use x="-20" y="-20" id="svg_13" fill="rgb(255,174,32)" xlink:href="#path-5"/>
      </g>
      <g id="svg_14">
       <use x="-20" y="-20" id="svg_15" fill="rgb(249,193,143)" xlink:href="#path-6"/>
      </g>
      <g id="svg_16">
       <use x="-20" y="-20" id="svg_17" fill="rgb(226,163,111)" xlink:href="#path-7"/>
      </g>
      <g id="svg_18">
       <use x="-20" y="-20" id="svg_19" fill="rgb(249,193,143)" xlink:href="#path-8"/>
      </g>
      <g id="svg_20">
       <use x="-20" y="-20" id="svg_21" fill="rgb(34,183,242)" xlink:href="#path-9"/>
      </g>
      <g id="svg_22">
       <use x="-20" y="-20" id="svg_23" fill="rgb(249,193,143)" xlink:href="#path-10"/>
      </g>
      <g id="svg_24">
       <use x="-20" y="-20" id="svg_25" fill="rgb(249,238,112)" xlink:href="#path-11"/>
      </g>
      <g id="svg_26">
       <use x="-20" y="-20" id="svg_27" fill="rgb(10,14,23)" xlink:href="#path-12"/>
      </g>
      <g id="svg_28">
       <use x="-20" y="-20" id="svg_29" fill="rgb(255,174,32)" xlink:href="#path-13"/>
      </g>
      <g id="svg_30">
       <use x="-20" y="-20" id="svg_31" fill="rgb(12,147,188)" xlink:href="#path-14"/>
      </g>
     </g>
     <g id="svg_32">
      <g id="svg_33">
       <use x="-20" y="-20" id="svg_34" fill="rgb(255,0,50)" xlink:href="#path-15"/>
      </g>
      <g id="svg_35">
       <use x="-20" y="-20" id="svg_36" fill="rgb(249,238,112)" xlink:href="#path-16"/>
      </g>
      <g id="svg_37">
       <use x="-20" y="-20" id="svg_38" fill="rgb(75,232,115)" xlink:href="#path-17"/>
      </g>
      <g id="svg_39">
       <use x="-20" y="-20" id="svg_40" fill="rgb(255,174,32)" xlink:href="#path-18"/>
      </g>
      <g id="svg_41">
       <use x="-20" y="-20" id="svg_42" fill="rgb(213,23,48)" xlink:href="#path-19"/>
      </g>
      <g id="svg_43">
       <use x="-20" y="-20" id="svg_44" fill="rgb(249,238,112)" xlink:href="#path-20"/>
      </g>
      <g id="svg_45">
       <use x="-20" y="-20" id="svg_46" fill="rgb(195,202,212)" xlink:href="#path-21"/>
      </g>
     </g>
    </g>
   </g>
  </g>
 </g>
</svg>