<?xml version="1.0" encoding="utf-8"?>
<svg version="1.1" xmlns="http://www.w3.org/2000/svg" xmlns:xlink="http://www.w3.org/1999/xlink" height="473.9999999999998" width="343.30000000000007">
  <defs>
    <path id="path-1" opacity="1" fill-rule="evenodd" d="M279.1361527967262,195.7826086956531 C276.3260572987726,194.84584980237247 273.04761255116006,193.90909090909184 270.23751705320643,192.50395256917088 C269.3008185538886,192.03557312253056 267.89577080491176,189.693675889329 268.3641200545707,188.75691699604837 C268.3641200545707,187.82015810276775 270.23751705320643,186.4150197628468 271.64256480218324,185.9466403162065 C275.3893587994547,185.00988142292584 279.13615279672626,184.54150197628556 282.8829467939977,183.1363636363646 C292.2499317871764,179.85770750988237 299.7435197817194,173.7687747035583 306.3004092769445,166.7430830039536 C309.1105047748981,163.93280632411168 311.4522510231928,160.65415019762952 313.79399727148746,157.3754940711473 C315.6673942701232,155.0335968379457 318.4774897680768,154.5652173913054 319.8825375170536,156.90711462450696 C320.3508867667125,157.8438735177876 320.3508867667125,159.71739130434887 319.8825375170536,160.65415019762946 C317.54079126875894,163.46442687747137 317.54079126875894,166.74308300395356 316.604092769441,170.4901185770761 C315.66739427012317,173.30039525691797 314.26234652114636,176.11067193675987 311.9206002728517,178.45256916996146 C303.95866302864977,187.82015810276775 293.6549795361532,192.50395256917088 281.4778990450209,194.84584980237247 L279.6045020463851,194.84584980237247 "/>
    <path id="path-2" opacity="1" fill-rule="evenodd" d="M260.4021828103679,189.2252964426863 C256.18703956343745,188.756916996046 251.5035470668481,186.8833992094847 249.16180081855342,182.19960474308155 C247.28840381991768,178.45256916995902 247.28840381991768,174.7055335968365 251.03519781718916,171.89525691699458 C255.2503410641196,168.61660079051234 258.99713506139113,164.8695652173898 261.8072305593447,160.18577075098665 C264.1489768076394,155.9703557312238 267.42742155525195,155.03359683794315 271.6425648021824,155.9703557312238 C275.3893587994539,156.90711462450446 277.26275579808964,159.7173913043463 276.3260572987718,163.46442687746887 C274.921009549795,168.61660079051236 273.0476125511592,173.76877470355586 274.452660300136,179.38932806323965 C274.921009549795,182.19960474308155 273.51596180081816,184.54150197628314 271.17421555252344,185.94664031620408 "/>
    <path id="path-3" opacity="1" fill-rule="evenodd" d="M246.82005457025946,168.14822134387387 C253.37694406548457,167.67984189723356 258.52878581173286,170.49011857707546 261.3388813096865,177.04743083003993 C263.21227830832225,180.7944664031625 262.2755798090044,184.07312252964473 259.93383356070973,187.35177865612698 C253.3769440654846,195.31422924901244 244.00995907230586,195.78260869565273 236.04802182810394,190.63043478260923 C234.1746248294682,189.2252964426883 232.76957708049136,186.8833992094867 232.30122783083246,184.5415019762851 "/>
    <path id="path-4" opacity="1" fill-rule="evenodd" d="M281.9462482946796,162.52766798418983 C288.5031377899047,162.05928853754952 293.654979536153,164.8695652173914 296.46507503410663,171.42687747035575 C298.3384720327424,175.17391304347825 297.40177353342455,178.45256916996044 295.0600272851299,181.73122529644263 C288.5031377899047,189.69367588932795 279.136152796726,190.16205533596826 271.17421555252406,185.00988142292485 C269.3008185538883,183.6047430830039 267.8957708049115,181.26284584980235 267.4274215552526,178.9209486166008 "/>
    <path id="path-5" opacity="1" fill-rule="evenodd" d="M177.50436562073654,46.83794466403174 L190.14979536152782,48.2430830039527 C197.17503410641186,48.71146245059302 201.39017735334227,57.14229249011878 197.64338335607079,63.23122529644293 C196.7066848567529,64.6363636363639 195.76998635743504,65.57312252964454 194.83328785811716,66.9782608695655 C193.89658935879928,68.38339920948646 192.95989085948145,69.3201581027671 192.02319236016353,70.72529644268806 C188.27639836289208,78.21936758893318 177.0360163710776,80.56126482213477 170.94747612551146,74.47233201581062 C168.60572987721676,72.13043478260902 166.73233287858105,69.3201581027671 164.8589358799453,66.50988142292519 C162.98553888130957,63.69960474308327 163.92223738062742,61.35770750988167 166.2639836289221,59.01581027668007 "/>
    <path id="path-6" opacity="1" fill-rule="evenodd" d="M150.34010914051854,65.1047430830057 C155.0236016371079,63.699604743084755 159.70709413369724,62.294466403163824 164.85893587994556,60.42094861660257 C164.85893587994556,65.1047430830057 165.3272851296045,68.85177865612819 165.3272851296045,73.06719367589099 C165.3272851296045,76.34584980237318 166.7323328785813,78.21936758893443 169.54242837653493,79.15612648221506 C174.69427012278322,81.02964426877631 179.84611186903152,82.90316205533756 185.46630286493874,84.7766798418988 C181.71950886766726,88.5237154150213 178.4410641200547,91.33399209486316 173.2892223738064,92.2707509881438 C163.92223738062768,93.67588932806474 155.0236016371079,92.73913043478413 145.65661664392917,90.39723320158257 C142.84652114597554,89.92885375494224 140.03642564802195,89.46047430830194 137.69467939972725,88.52371541502131 C136.28963165075044,88.055335968381 135.35293315143258,87.11857707510038 133.47953615279684,86.18181818181975 C138.1630286493862,84.30830039525851 141.9098226466577,82.43478260869725 145.6566166439292,81.02964426877631 C149.40341064120068,79.62450592885537 151.27680763983642,77.75098814229413 150.80845839017746,73.53557312253132 "/>
    <path id="path-7" opacity="1" fill-rule="evenodd" d="M198.11173260572997,91.80237154150103 C197.1750341064121,96.48616600790419 196.23833560709426,100.23320158102672 195.30163710777634,103.98023715414926 C192.95989085948167,111.94268774703464 192.49154160982272,119.90513833992001 192.0231923601638,127.86758893280538 C191.55484311050486,137.23517786561172 191.0864938608459,146.60276679841803 190.14979536152805,155.50197628458403 C189.21309686221016,166.74308300395163 190.618144611187,177.98418972331922 192.49154160982272,189.22529644268684 C193.42824010914063,194.3774703557303 194.3649386084585,199.52964426877378 195.30163710777634,205.1501976284576 L132.07448840381997,205.1501976284576 L132.07448840381997,199.52964426877378 C132.07448840381997,184.54150197628363 132.54283765347893,169.55335968379353 132.54283765347893,154.5652173913034 C132.54283765347893,148.00790513833897 130.66944065484319,141.91897233201485 129.7327421555253,135.3616600790504 C128.79604365620742,129.2727272727263 128.3276944065485,123.6521739130425 127.85934515688956,117.5632411067184 C127.85934515688956,111.47430830039428 126.92264665757169,106.32213438735081 124.580900409277,100.701581027667 C123.1758526603002,97.42292490118479 122.23915416098232,94.14426877470258 121.30245566166445,89.92885375493972 C124.580900409277,88.05533596837846 127.39099590723063,85.71343873517688 130.66944065484319,83.8399209486156 C131.60613915416104,83.37154150197529 133.4795361527968,83.37154150197529 134.41623465211467,83.8399209486156 C140.03642564802192,84.77667984189624 145.65661664392914,86.18181818181719 151.2768076398364,87.58695652173814 C157.36534788540254,88.9920948616591 163.45388813096872,88.9920948616591 169.5424283765349,87.58695652173814 C173.28922237380635,86.6501976284575 177.0360163710779,85.24505928853655 180.31446111869042,83.3715415019753 C182.6562073669851,81.96640316205435 184.99795361527978,82.43478260869468 186.87135061391552,83.83992094861563 "/>
    <path id="path-8" opacity="1" fill-rule="evenodd" d="M173.75757162346525,36.53359683794369 C179.8461118690314,34.66007905138241 182.1878581173261,36.06521739130337 181.25115961800824,42.15415019762751 C180.31446111869036,46.369565217390374 178.90941336971355,50.584980237153246 174.2259208731242,51.99011857707419 C173.28922237380633,52.45849802371451 172.35252387448847,53.86363636363547 171.8841746248295,54.800395256916104 C170.01077762619377,58.07905138339834 168.60572987721696,61.82608695652088 166.26398362892226,64.6363636363628 C157.36534788540249,74.9407114624498 142.84652114597546,75.40909090909012 133.94788540245565,64.16798418972247 C124.112551159618,51.99011857707419 119.42905866302863,34.66007905138241 126.92264665757162,18.735177865611583 C127.85934515688949,16.86166007905031 129.2643929058663,14.519762845848716 130.6694406548431,13.11462450592776 C138.1630286493861,3.278656126481069 150.34010914051845,1.8735177865601145 160.64379263301504,9.36758893280521 C167.6690313778991,14.519762845848714 171.41582537517058,22.013833992093815 173.75757162346525,30.444664031619542 "/>
    <path id="path-9" opacity="1" fill-rule="evenodd" d="M179.3777626193725,36.065217391304486 C175.63096862210102,38.40711462450607 174.2259208731242,39.34387351778671 170.47912687585273,41.6857707509883 C167.20068212824015,36.533596837944806 161.112141882674,36.533596837944806 155.49195088676674,35.128458498023846 C148.93506139154164,33.254940711462574 142.84652114597546,30.44466403162067 137.22633015006824,26.229249011857807 C135.82128240109142,25.292490118577167 134.4162346521146,24.35573122529653 132.54283765347887,22.95059288537558 C131.60613915416099,24.35573122529653 131.13778990450206,25.292490118577167 130.66944065484313,26.69762845849812 C128.7960436562074,30.91304347826098 126.92264665757162,35.128458498023846 125.04924965893589,38.875494071146385 C123.17585266030015,42.62252964426894 120.83410641200547,43.09090909090925 117.5556616643929,40.74901185770766 L116.15061391541609,39.343873517786704 C111.93547066848566,35.128458498023846 109.12537517053204,29.50790513834003 109.59372442019098,23.4189723320159 C109.59372442019098,18.266798418972403 111.46712141882672,14.051383399209538 116.61896316507503,12.177865612648267 C123.17585266030014,9.36758893280636 129.73274215552524,6.557312252964452 136.7579809004093,4.215415019762862 C146.59331514324697,0.9367588932806363 156.42864938608463,0 166.73233287858125,3.747035573122544 C173.7575716234653,6.0889328063241335 177.9727148703957,10.772727272727314 179.84611186903146,17.330039525691767 "/>
    <path id="path-10" opacity="1" fill-rule="evenodd" d="M136.75798090040922,211.70750988142248 C137.22633015006815,202.3399209486161 138.16302864938604,193.9090909090904 138.63137789904496,185.0098814229243 C137.69467939972708,184.541501976284 136.75798090040922,184.07312252964365 135.82128240109134,183.13636363636306 C133.0111869031377,181.26284584980178 132.54283765347878,177.98418972331953 135.35293315143238,176.5790513833986 C140.5047748976807,173.7687747035567 140.97312414733963,169.0849802371535 140.97312414733963,163.93280632410998 C140.97312414733963,147.07114624505851 141.44147339699856,130.20948616600705 140.97312414733963,112.87944664031527 C140.50477489768068,102.57509881422827 139.0997271487039,92.27075098814126 138.163028649386,81.49802371541394 C140.03642564802175,81.49802371541394 141.44147339699856,81.02964426877361 143.78321964529323,81.02964426877361 C145.18826739427004,95.08102766798316 146.59331514324685,109.13241106719272 147.5300136425647,123.65217391304259 C157.83369713506133,123.18379446640225 167.66903137789896,122.71541501976195 178.4410641200545,122.24703557312162 C179.3777626193724,108.6640316205524 177.50436562073662,95.08102766798315 177.97271487039558,81.96640316205425 C182.65620736698492,81.96640316205425 182.65620736698492,81.96640316205425 182.65620736698492,85.24505928853647 C183.12455661664387,98.35968379446538 183.59290586630283,111.94268774703463 184.06125511596173,125.05731225296354 C184.52960436562066,140.98221343873436 184.52960436562066,156.43873517786488 184.9979536152796,172.3636363636357 C184.9979536152796,173.30039525691635 184.9979536152796,174.23715415019694 185.46630286493854,175.17391304347763 C187.33969986357428,175.17391304347763 188.74474761255112,175.64229249011794 190.61814461118684,175.64229249011794 C190.61814461118684,177.5158102766792 191.0864938608458,179.8577075098808 191.0864938608458,181.73122529644206 C189.21309686221005,182.66798418972272 187.80804911323324,183.136363636363 185.46630286493854,184.07312252964365 C187.33969986357428,192.9723320158097 189.21309686221002,201.87154150197574 191.5548431105047,211.23913043478214 "/>
    <path id="path-11" opacity="1" fill-rule="evenodd" d="M162.51718963165084,202.33992094861588 C159.7070941336972,203.2766798418965 156.89699863574359,203.74505928853682 154.08690313779,204.21343873517714 C148.46671214188277,205.61857707509807 145.1882673942702,202.8083003952562 145.1882673942702,196.71936758893207 L145.1882673942702,193.9090909090902 C144.25156889495236,193.44071146244988 142.84652114597554,192.50395256916926 141.9098226466577,192.03557312252894 C138.16302864938618,190.1620553359677 133.94788540245577,188.2885375494064 129.73274215552533,186.88339920948545 C120.3657571623466,183.60474308300323 112.40381991814469,177.51581027667913 104.44188267394277,171.89525691699532 C101.63178717598915,170.02173913043404 100.69508867667128,167.21146245059214 101.16343792633022,164.40118577075026 L101.16343792633022,163.4644268774696 C105.84693042291958,150.81818181818105 110.06207366985,138.1719367588925 114.74556616643936,124.58893280632333 C119.42905866302871,126.4624505928846 123.64420190995914,128.33596837944586 128.3276944065485,130.2094861660071 C124.580900409277,141.4505928853747 120.83410641200551,152.223320158102 117.55566166439297,163.4644268774696 L123.1758526603002,167.67984189723245 C130.66944065484319,173.30039525691626 138.16302864938615,178.4525691699597 145.65661664392914,184.0731225296435 C147.53001364256488,185.47826086956445 149.87175989085955,186.88339920948542 152.21350613915422,185.94664031620476 C154.08690313778996,185.47826086956445 155.4919508867668,186.4150197628451 156.42864938608466,187.82015810276602 C157.83369713506144,190.63043478260795 158.77039563437933,192.9723320158095 159.7070941336972,195.78260869565142 "/>
    <path id="path-12" opacity="1" fill-rule="evenodd" d="M170.01077762619363,209.3656126482211 C169.54242837653467,207.96047430830015 168.60572987721685,206.55533596837915 168.60572987721685,205.61857707509853 C168.1373806275579,202.3399209486163 169.54242837653473,199.99802371541472 172.82087312414725,199.99802371541472 C178.44106412005448,200.46640316205506 181.719508867667,198.12450592885347 184.52960436562063,193.90909090909065 C190.14979536152788,185.94664031620522 195.76998635743507,177.98418972331987 201.39017735334232,170.49011857707478 C202.7952251023191,168.61660079051353 203.26357435197806,166.74308300395228 202.7952251023191,164.4011857707507 L195.76998635743507,134.89328063241072 C195.30163710777614,133.48814229248978 195.30163710777614,132.08300395256882 194.8332878581172,129.74110671936725 C200.45347885402444,129.2727272727269 205.6053206002727,128.8043478260866 210.757162346521,128.33596837944629 C211.69386084583888,132.08300395256882 212.63055934515674,135.83003952569135 213.56725784447463,139.10869565217357 C215.44065484311037,147.53952569169928 216.8457025920872,155.97035573122497 219.18744884038188,163.93280632411037 C220.12414733969976,168.14822134387322 219.18744884038188,170.95849802371512 216.37735334242825,173.76877470355703 C209.35211459754422,181.2628458498021 202.32687585266018,189.22529644268747 195.30163710777614,197.18774703557284 C193.89658935879936,199.06126482213412 192.49154160982252,201.4031620553357 191.55484311050466,203.27667984189696 C189.21309686221,207.02371541501947 186.87135061391533,210.3023715415017 181.719508867667,209.8339920948614 "/>
    <path id="path-13" opacity="1" fill-rule="evenodd" d="M196.7066848567533,91.33399209486151 C200.45347885402478,93.67588932806309 202.32687585266055,96.48616600790498 203.73192360163736,99.76482213438719 C208.41541609822673,109.13241106719349 210.28881309686247,119.43675889328041 212.63055934515717,130.67786561264796 C206.07366984993203,131.6146245059286 199.98512960436585,133.01976284584953 193.89658935879967,133.95652173913015 "/>
    <path id="path-14" opacity="1" fill-rule="evenodd" d="M107.72032742155517,126.93083003952441 C111.93547066848559,115.22134387351655 116.15061391541603,103.98023715414898 120.36575716234644,92.73913043478144 C120.83410641200538,91.80237154150082 121.77080491132325,91.33399209486049 123.17585266030007,90.39723320157987 C127.85934515688943,104.44861660078931 131.13778990450197,119.43675889327938 130.66944065484307,133.95652173912913 "/>
    <path id="path-15" opacity="1" fill-rule="evenodd" d="M154.08690313778976,195.78260869565284 C155.49195088676655,195.3142292490125 156.42864938608443,194.8458498023722 156.42864938608443,195.3142292490125 C159.23874488403806,199.99802371541566 161.58049113233272,204.6818181818188 164.39058663028635,208.89723320158163 C162.5171896316506,210.30237154150257 161.11214188267377,210.30237154150257 160.17544338335594,208.89723320158163 "/>
    <path id="path-16" opacity="1" fill-rule="evenodd" d="M57.138608458390436,155.97035573122557 L45.42987721691705,155.97035573122557 L45.42987721691705,125.05731225296495 L57.138608458390436,125.05731225296495 "/>
    <path id="path-17" opacity="1" fill-rule="evenodd" d="M69.31568894952258,150.81818181818167 L69.31568894952258,160.18577075098807 L33.25279672578448,160.18577075098807 L33.25279672578448,151.28656126482198 "/>
    <path id="path-18" opacity="1" fill-rule="evenodd" d="M4.215143246930339,473.9999999999998 C4.215143246930339,471.6581027667982 4.683492496589276,469.3162055335966 4.683492496589276,466.974308300395 L4.683492496589276,224.35375494071104 L4.683492496589276,217.3280632411063 L339.5532060027284,217.3280632411063 L339.5532060027284,473.5316205533595 "/>
    <path id="path-19" opacity="1" fill-rule="evenodd" d="M29.506002728512883,155.9703557312248 L73.53083219645282,155.9703557312248 L73.53083219645282,205.6185770750982 L29.506002728512883,205.6185770750982 "/>
    <path id="path-20" opacity="1" fill-rule="evenodd" d="M310.9839017735336,183.60474308300445 C311.4522510231925,187.35177865612695 309.5788540245568,190.16205533596883 307.705457025921,192.5039525691704 C304.42701227830844,196.2509881422929 300.68021828103696,199.99802371541543 296.9334242837655,202.8083003952573 C293.65497953615295,205.15019762845887 289.9081855388814,206.08695652173952 285.69304229195103,206.08695652173952 L251.97189631650758,206.08695652173952 C246.35170532060033,206.08695652173952 241.19986357435207,204.21343873517827 236.98472032742163,200.46640316205574 C232.7695770804912,197.18774703557352 229.02278308321968,193.44071146245105 227.14938608458394,188.28853754940758 C226.681036834925,186.88339920948667 226.21268758526605,185.4782608695657 225.74433833560715,183.60474308300445 "/>
    <path id="path-21" opacity="1" fill-rule="evenodd" d="M198.58008185538898,242.15217391304395 L308.17380627558003,242.15217391304395 L308.17380627558003,445.8972332015821 C304.42701227830855,447.302371541503 208.41541609822667,447.7707509881434 198.58008185538898,446.8339920948627 "/>
    <path id="path-22" opacity="1" fill-rule="evenodd" d="M147.998362892224,446.83399209486316 L38.4046384720329,446.83399209486316 L38.4046384720329,243.08893280632515 C42.151432469304396,242.15217391304452 137.2263301500685,241.2154150197639 147.53001364256508,242.62055335968483 "/>
    <path id="path-23" opacity="1" fill-rule="evenodd" d="M0,219.66996047430888 L0,205.61857707509944 L343.30000000000007,205.61857707509944 L343.30000000000007,219.20158102766857 "/>
  </defs>
  <g opacity="1">
    <g opacity="1">
      <use xlink:href="#path-1" fill="rgb(250,196,10)" fill-opacity="1"/>
    </g>
    <g opacity="1">
      <use xlink:href="#path-2" fill="rgb(253,123,1)" fill-opacity="1"/>
    </g>
    <g opacity="1">
      <use xlink:href="#path-3" fill="rgb(229,12,64)" fill-opacity="1"/>
    </g>
    <g opacity="1">
      <use xlink:href="#path-4" fill="rgb(137,137,48)" fill-opacity="1"/>
    </g>
    <g opacity="1">
      <use xlink:href="#path-5" fill="rgb(10,14,23)" fill-opacity="1"/>
    </g>
    <g opacity="1">
      <use xlink:href="#path-6" fill="rgb(155,85,61)" fill-opacity="1"/>
    </g>
    <g opacity="1">
      <use xlink:href="#path-7" fill="rgb(229,232,237)" fill-opacity="1"/>
    </g>
    <g opacity="1">
      <use xlink:href="#path-8" fill="rgb(193,119,89)" fill-opacity="1"/>
    </g>
    <g opacity="1">
      <use xlink:href="#path-9" fill="rgb(10,14,23)" fill-opacity="1"/>
    </g>
    <g opacity="1">
      <use xlink:href="#path-10" fill="rgb(229,12,64)" fill-opacity="1"/>
    </g>
    <g opacity="1">
      <use xlink:href="#path-11" fill="rgb(193,119,89)" fill-opacity="1"/>
    </g>
    <g opacity="1">
      <use xlink:href="#path-12" fill="rgb(193,119,89)" fill-opacity="1"/>
    </g>
    <g opacity="1">
      <use xlink:href="#path-13" fill="rgb(200,200,204)" fill-opacity="1"/>
    </g>
    <g opacity="1">
      <use xlink:href="#path-14" fill="rgb(200,200,204)" fill-opacity="1"/>
    </g>
    <g opacity="1">
      <use xlink:href="#path-15" fill="rgb(46,49,146)" fill-opacity="1"/>
    </g>
    <g opacity="1">
      <use xlink:href="#path-16" fill="rgb(154,162,165)" fill-opacity="1"/>
    </g>
    <g opacity="1">
      <use xlink:href="#path-17" fill="rgb(200,200,204)" fill-opacity="1"/>
    </g>
    <g opacity="1">
      <use xlink:href="#path-18" fill="rgb(200,200,204)" fill-opacity="1"/>
    </g>
    <g opacity="1">
      <use xlink:href="#path-19" fill="rgb(154,162,165)" fill-opacity="1"/>
    </g>
    <g opacity="1">
      <use xlink:href="#path-20" fill="rgb(249,238,112)" fill-opacity="1"/>
    </g>
    <g opacity="1">
      <use xlink:href="#path-21" fill="rgb(79,77,99)" fill-opacity="1"/>
    </g>
    <g opacity="1">
      <use xlink:href="#path-22" fill="rgb(79,77,99)" fill-opacity="1"/>
    </g>
    <g opacity="1">
      <use xlink:href="#path-23" fill="rgb(79,77,99)" fill-opacity="1"/>
    </g>
  </g>
</svg>